<svg xmlns="http://www.w3.org/2000/svg" viewBox="0 0 400 400" fill="none">
  <g stroke="#CEB097" stroke-width="12" stroke-linecap="round" stroke-linejoin="round">
    <path d="M200 64c-82 0-148 66-148 148 0 105 63 170 148 188" opacity="0.55"/>
    <path d="M200 92c-66 0-118 52-118 118 0 94 52 150 118 168" opacity="0.55"/>
    <path d="M200 122c-50 0-90 40-90 90 0 76 40 126 90 142" opacity="0.55"/>
    <path d="M200 152c-36 0-64 28-64 64 0 62 30 104 64 116" opacity="0.55"/>
    <path d="M200 186c-22 0-40 18-40 40 0 48 18 80 40 88" opacity="0.55"/>
    <path d="M200 220c-10 0-20 8-20 20 0 32 10 52 20 56" opacity="0.55"/>
    <path d="M200 128c30 0 52 24 52 60 0 54-18 96-18 140 0 22 6 34 18 46" opacity="0.35"/>
    <path d="M200 164c18 0 32 14 32 38 0 42-16 76-16 116 0 18 4 30 12 40" opacity="0.35"/>
    <path d="M200 204c8 0 16 6 16 20 0 30-12 58-12 88 0 12 4 22 10 30" opacity="0.35"/>
  </g>
</svg>
